<svg xmlns="http://www.w3.org/2000/svg" viewBox="0 0 24 24" class=" "><path fill="#15C27E" fill-rule="evenodd" d="M6.712 17.288c4.98 4.98 8.758 6.113 11.767 5.397 1.67-.397 3.16-1.76 4.155-2.891.754-.86.61-2.181-.293-2.881l-3.98-3.078a.997.997 0 00-1.315.083l-2.113 2.113a.992.992 0 01-1.222.15c-.68-.417-1.818-1.226-3.242-2.65s-2.233-2.562-2.65-3.242a.99.99 0 01.15-1.222l2.113-2.112a.997.997 0 00.084-1.317L7.086 1.66c-.7-.905-2.02-1.048-2.88-.293-1.132.994-2.493 2.483-2.89 4.154-.716 3.01.417 6.787 5.397 11.767h-.001z"></path></svg>