<svg xmlns="http://www.w3.org/2000/svg" viewBox="0 0 24 24" width="24" height="24" preserveAspectRatio="xMidYMid meet" style="width: 100%; height: 100%; transform: translate3d(0px, 0px, 0px);">
    <defs>
        <clipPath id="__lottie_element_2">
            <rect width="24" height="24" x="0" y="0"></rect>
        </clipPath>
    </defs>
    <g clip-path="url(#__lottie_element_2)">
        <g transform="matrix(1,0,0,1,0,0)" opacity="1" style="display: block;">
            <g opacity="1" transform="matrix(1,0,0,1,11.968999862670898,12.00100040435791)">
                <path fill="rgb(48,129,245)" fill-opacity="1" d=" M0.0010000000474974513,-11 C0.0010000000474974513,-11 -0.0010000000474974513,-11 -0.0010000000474974513,-11 C-0.0010000000474974513,-11 -9.309000015258789,-7.177000045776367 -9.309000015258789,-7.177000045776367 C-9.309000015258789,-7.177000045776367 -9.309000015258789,-1 -9.309000015258789,-1 C-9.309000015258789,-1 -9.307999610900879,-1 -9.307999610900879,-1 C-9.307999610900879,-1 -9.307999610900879,1.4359999895095825 -9.307999610900879,1.4359999895095825 C-9.307999610900879,5.190000057220459 -4.401000022888184,8.836000442504883 0,11 C0,11 0,10.99899959564209 0,10.99899959564209 C0,10.99899959564209 0.0010000000474974513,11 0.0010000000474974513,11 C4.401000022888184,8.836000442504883 9.309000015258789,5.190000057220459 9.309000015258789,1.4359999895095825 C9.309000015258789,1.4359999895095825 9.309000015258789,-1 9.309000015258789,-1 C9.309000015258789,-1 9.309000015258789,-1.0010000467300415 9.309000015258789,-1.0010000467300415 C9.309000015258789,-1.0010000467300415 9.309000015258789,-7.177000045776367 9.309000015258789,-7.177000045776367 C9.309000015258789,-7.177000045776367 0.0010000000474974513,-11 0.0010000000474974513,-11z"></path>
            </g>
        </g>
        <g transform="matrix(1,0,0,1,0,0)" opacity="1" style="display: block;">
            <g opacity="1" transform="matrix(1,0,0,1,12,12)">
                <path stroke-linecap="round" stroke-linejoin="miter" fill-opacity="0" stroke-miterlimit="10" stroke="rgb(255,255,255)" stroke-opacity="1" stroke-width="2" d=" M-4.2769999504089355,0.24699999392032623 C-4.2769999504089355,0.24699999392032623 -1.3980000019073486,2.680000066757202 -1.3980000019073486,2.680000066757202 C-1.3980000019073486,2.680000066757202 4.340000152587891,-2.493000030517578 4.340000152587891,-2.493000030517578">
                </path>
            </g>
        </g>
    </g>
</svg>